HIERARCHY
ROOT Hips
{
    OFFSET 0.000000 0.000000 0.000000
    CHANNELS 6 Xposition Yposition Zposition Zrotation Xrotation Yrotation
    JOINT Spine
    {
        OFFSET 0.000001 7.292995 0.000000
        CHANNELS 3 Zrotation Xrotation Yrotation
        JOINT Spine1
        {
            OFFSET -0.000000 20.255388 0.000001
            CHANNELS 3 Zrotation Xrotation Yrotation
            JOINT Neck
            {
                OFFSET 0.000001 20.786594 0.000000
                CHANNELS 3 Zrotation Xrotation Yrotation
                JOINT Head
                {
                    OFFSET 0.000003 12.530788 1.776080
                    CHANNELS 3 Zrotation Xrotation Yrotation
                    End Site
                    {
                        OFFSET 0.000000 17.760757 0.000000
                    }
                }
            }
            JOINT LeftShoulder
            {
                OFFSET 3.550532 15.465697 -0.908801
                CHANNELS 3 Zrotation Xrotation Yrotation
                JOINT LeftArm
                {
                    OFFSET 12.513301 -0.000005 0.000001
                    CHANNELS 3 Zrotation Xrotation Yrotation
                    JOINT LeftForeArm
                    {
                        OFFSET 24.225992 0.000005 0.000000
                        CHANNELS 3 Zrotation Xrotation Yrotation
                        JOINT LeftHand
                        {
                            OFFSET 20.711395 -0.000004 0.000000
                            CHANNELS 3 Zrotation Xrotation Yrotation
                            JOINT LeftHandThumb1
                            {
                                OFFSET 2.121964 -2.411326 3.375861
                                CHANNELS 3 Zrotation Xrotation Yrotation
                                JOINT LeftHandThumb2
                                {
                                    OFFSET 2.803212 -0.000001 -0.000002
                                    CHANNELS 3 Zrotation Xrotation Yrotation
                                    JOINT LeftHandThumb3
                                    {
                                        OFFSET 2.395929 0.000000 0.000000
                                        CHANNELS 3 Zrotation Xrotation Yrotation
                                        End Site
                                        {
                                            OFFSET 2.127676 0.000000 0.000000
                                        }
                                    }
                                }
                            }
                            JOINT LeftHandIndex1
                            {
                                OFFSET 8.680776 0.000004 3.375861
                                CHANNELS 3 Zrotation Xrotation Yrotation
                                JOINT LeftHandIndex2
                                {
                                    OFFSET 4.218180 -0.000002 0.000001
                                    CHANNELS 3 Zrotation Xrotation Yrotation
                                    JOINT LeftHandIndex3
                                    {
                                        OFFSET 2.109090 0.000001 -0.000000
                                        CHANNELS 3 Zrotation Xrotation Yrotation
                                        End Site
                                        {
                                            OFFSET 1.872952 0.000000 0.000000
                                        }
                                    }
                                }
                            }
                            JOINT LeftHandMiddle1
                            {
                                OFFSET 8.680775 0.000001 1.118862
                                CHANNELS 3 Zrotation Xrotation Yrotation
                                JOINT LeftHandMiddle2
                                {
                                    OFFSET 4.640000 0.000002 -0.000000
                                    CHANNELS 3 Zrotation Xrotation Yrotation
                                    JOINT LeftHandMiddle3
                                    {
                                        OFFSET 2.530906 0.000005 0.000000
                                        CHANNELS 3 Zrotation Xrotation Yrotation
                                        End Site
                                        {
                                            OFFSET 2.247544 0.000000 0.000000
                                        }
                                    }
                                }
                            }
                            JOINT LeftHandRing1
                            {
                                OFFSET 8.198514 -0.000004 -1.118859
                                CHANNELS 3 Zrotation Xrotation Yrotation
                                JOINT LeftHandRing2
                                {
                                    OFFSET 4.218182 -0.000003 -0.000001
                                    CHANNELS 3 Zrotation Xrotation Yrotation
                                    JOINT LeftHandRing3
                                    {
                                        OFFSET 2.109086 0.000004 0.000001
                                        CHANNELS 3 Zrotation Xrotation Yrotation
                                        End Site
                                        {
                                            OFFSET 1.872952 0.000000 0.000000
                                        }
                                    }
                                }
                            }
                            JOINT LeftHandPinky1
                            {
                                OFFSET 7.716242 0.000005 -3.375859
                                CHANNELS 3 Zrotation Xrotation Yrotation
                                JOINT LeftHandPinky2
                                {
                                    OFFSET 3.374535 0.000004 0.000002
                                    CHANNELS 3 Zrotation Xrotation Yrotation
                                    JOINT LeftHandPinky3
                                    {
                                        OFFSET 1.687275 0.000002 -0.000001
                                        CHANNELS 3 Zrotation Xrotation Yrotation
                                        End Site
                                        {
                                            OFFSET 1.498360 0.000000 0.000000
                                        }
                                    }
                                }
                            }
                        }
                    }
                }
            }
            JOINT RightShoulder
            {
                OFFSET -3.550531 15.465694 -0.908802
                CHANNELS 3 Zrotation Xrotation Yrotation
                JOINT RightArm
                {
                    OFFSET -12.513298 -0.000004 0.000001
                    CHANNELS 3 Zrotation Xrotation Yrotation
                    JOINT RightForeArm
                    {
                        OFFSET -24.225996 -0.000002 -0.000000
                        CHANNELS 3 Zrotation Xrotation Yrotation
                        JOINT RightHand
                        {
                            OFFSET -20.711401 0.000005 0.000001
                            CHANNELS 3 Zrotation Xrotation Yrotation
                            JOINT RightHandThumb1
                            {
                                OFFSET -2.121970 -2.411334 3.375861
                                CHANNELS 3 Zrotation Xrotation Yrotation
                                JOINT RightHandThumb2
                                {
                                    OFFSET -2.803210 0.000003 -0.000004
                                    CHANNELS 3 Zrotation Xrotation Yrotation
                                    JOINT RightHandThumb3
                                    {
                                        OFFSET -2.395930 -0.000001 0.000002
                                        CHANNELS 3 Zrotation Xrotation Yrotation
                                        End Site
                                        {
                                            OFFSET -2.127676 0.000000 0.000000
                                        }
                                    }
                                }
                            }
                            JOINT RightHandIndex1
                            {
                                OFFSET -8.680779 0.000001 3.375860
                                CHANNELS 3 Zrotation Xrotation Yrotation
                                JOINT RightHandIndex2
                                {
                                    OFFSET -4.218180 0.000000 -0.000000
                                    CHANNELS 3 Zrotation Xrotation Yrotation
                                    JOINT RightHandIndex3
                                    {
                                        OFFSET -2.109090 0.000001 -0.000000
                                        CHANNELS 3 Zrotation Xrotation Yrotation
                                        End Site
                                        {
                                            OFFSET -1.872952 0.000000 0.000000
                                        }
                                    }
                                }
                            }
                            JOINT RightHandMiddle1
                            {
                                OFFSET -8.680780 0.000001 1.118860
                                CHANNELS 3 Zrotation Xrotation Yrotation
                                JOINT RightHandMiddle2
                                {
                                    OFFSET -4.640000 -0.000002 0.000001
                                    CHANNELS 3 Zrotation Xrotation Yrotation
                                    JOINT RightHandMiddle3
                                    {
                                        OFFSET -2.530910 0.000001 -0.000000
                                        CHANNELS 3 Zrotation Xrotation Yrotation
                                        End Site
                                        {
                                            OFFSET -2.247544 0.000000 0.000000
                                        }
                                    }
                                }
                            }
                            JOINT RightHandRing1
                            {
                                OFFSET -8.198519 0.000005 -1.118860
                                CHANNELS 3 Zrotation Xrotation Yrotation
                                JOINT RightHandRing2
                                {
                                    OFFSET -4.218180 -0.000006 0.000000
                                    CHANNELS 3 Zrotation Xrotation Yrotation
                                    JOINT RightHandRing3
                                    {
                                        OFFSET -2.109090 0.000001 -0.000000
                                        CHANNELS 3 Zrotation Xrotation Yrotation
                                        End Site
                                        {
                                            OFFSET -1.872952 0.000000 0.000000
                                        }
                                    }
                                }
                            }
                            JOINT RightHandPinky1
                            {
                                OFFSET -7.716248 -0.000002 -3.375859
                                CHANNELS 3 Zrotation Xrotation Yrotation
                                JOINT RightHandPinky2
                                {
                                    OFFSET -3.374540 0.000000 0.000000
                                    CHANNELS 3 Zrotation Xrotation Yrotation
                                    JOINT RightHandPinky3
                                    {
                                        OFFSET -1.687270 0.000004 0.000001
                                        CHANNELS 3 Zrotation Xrotation Yrotation
                                        End Site
                                        {
                                            OFFSET -1.498360 0.000000 0.000000
                                        }
                                    }
                                }
                            }
                        }
                    }
                }
            }
        }
    }
    JOINT LeftUpLeg
    {
        OFFSET 8.880376 -0.000000 -0.000000
        CHANNELS 3 Zrotation Xrotation Yrotation
        JOINT LeftLeg
        {
            OFFSET -0.000001 -40.387405 -0.000001
            CHANNELS 3 Zrotation Xrotation Yrotation
            JOINT LeftFoot
            {
                OFFSET -0.000001 -36.911297 -0.000001
                CHANNELS 3 Zrotation Xrotation Yrotation
                JOINT LeftToeBase
                {
                    OFFSET -0.000002 -5.772240 13.320604
                    CHANNELS 3 Zrotation Xrotation Yrotation
                    End Site
                    {
                        OFFSET 0.000000 0.000000 3.552151
                    }
                }
            }
        }
    }
    JOINT RightUpLeg
    {
        OFFSET -8.880376 0.000000 0.000000
        CHANNELS 3 Zrotation Xrotation Yrotation
        JOINT RightLeg
        {
            OFFSET -0.000001 -40.387390 0.000000
            CHANNELS 3 Zrotation Xrotation Yrotation
            JOINT RightFoot
            {
                OFFSET 0.000002 -36.911297 -0.000001
                CHANNELS 3 Zrotation Xrotation Yrotation
                JOINT RightToeBase
                {
                    OFFSET 0.000001 -5.772238 13.320600
                    CHANNELS 3 Zrotation Xrotation Yrotation
                    End Site
                    {
                        OFFSET 0.000000 0.000000 3.552151
                    }
                }
            }
        }
    }
}
MOTION
Frames: 5
Frame Time: 0.013889
53.818619    83.868752    1.658157    0.090086    8.357821    3.239504    -0.222612    -23.502544    -0.558203    0.627475    15.328815    -0.659582    -1.186081    -6.043194    0.479451    0.803627    2.731952    0.568640    -2.483157    5.809778    -1.107886    -59.531719    40.872726    -13.901591    -8.041204    -19.918863    -22.522421    -8.613583    6.619848    7.644788    28.994221    36.070629    -41.294956    -11.969388    -0.026494    23.317451    -0.000000    0.000000    -0.000000    -6.816214    17.880852    -2.146897    -6.485516    -0.000002    -0.000002    -6.485501    -0.000004    0.000005    -4.830735    8.968555    -1.369547    -4.771515    -0.000000    0.000003    -4.771521    0.000000    -0.000002    -3.963170    -8.978834    -1.445665    -3.914523    0.000002    -0.000003    -3.914530    0.000002    -0.000003    -3.214566    -17.973455    -2.645217    -3.057518    0.000002    0.000000    -3.057532    -0.000001    -0.000000    6.785710    5.891530    1.217448    66.867325    25.564562    4.074802    9.065744    -28.990103    18.222759    -6.538055    -6.100037    -10.044379    -38.510757    29.102634    43.562187    13.109689    -0.517954    -23.312033    -0.000000    0.000000    -0.000000    10.929300    17.694000    2.085921    10.406377    0.000000    0.000000    10.406374    -0.000001    0.000001    11.665767    8.817049    0.909719    11.526011    -0.000001    -0.000000    11.526006    -0.000000    0.000000    12.231966    -8.798918    -1.660585    12.085836    0.000000    -0.000001    12.085834    -0.000001    0.000000    13.273912    -17.548939    -3.051192    12.645645    0.000000    -0.000000    12.645652    0.000004    -0.000000    -0.670905    -8.012687    4.751666    -0.000000    6.645367    0.000001    -7.355142    -3.763404    -15.100109    0.000001    -0.610679    -0.000000    2.267423    -4.945002    -12.472839    -0.000000    6.236558    0.000001    7.199994    -8.561075    4.716981    -0.000001    3.001379    0.000001    
53.803570    83.868752    1.661460    0.083960    8.352974    3.433308    -0.210568    -23.471596    -0.528661    0.593695    15.315229    -0.624526    -1.282157    -6.043238    0.429005    0.803972    2.759068    0.527710    -2.410506    5.790145    -1.125578    -59.270096    40.904644    -14.022313    -7.809652    -19.500452    -22.336321    -9.159724    6.686757    7.624441    28.967943    36.089153    -41.299072    -12.005326    -0.042000    23.317444    -0.000000    0.000000    -0.000000    -6.927975    17.876926    -2.236896    -6.591951    0.000002    0.000004    -6.591960    0.000002    -0.000002    -4.904741    8.967589    -1.420165    -4.844628    -0.000004    0.000005    -4.844641    0.000000    -0.000003    -4.020319    -8.978213    -1.453461    -3.970980    -0.000003    0.000002    -3.970980    0.000003    0.000001    -3.256380    -17.972757    -2.655872    -3.097334    -0.000001    0.000000    -3.097313    0.000002    0.000002    6.659213    5.898910    1.284259    66.835419    25.694269    4.096118    8.857150    -28.730526    17.961620    -6.052203    -6.068427    -10.148318    -38.498280    29.111994    43.559937    13.118244    -0.521634    -23.311960    -0.000000    0.000000    -0.000000    10.936504    17.693600    2.104667    10.413251    0.000002    0.000002    10.413237    0.000001    0.000000    11.698007    8.816039    0.915245    11.557887    0.000001    -0.000000    11.557883    0.000001    0.000000    12.276858    -8.797445    -1.690851    12.130217    -0.000001    -0.000001    12.130205    0.000002    0.000002    13.333420    -17.544895    -3.107512    12.702550    -0.000000    -0.000003    12.702529    -0.000002    0.000002    -0.670850    -8.092206    4.693605    -0.000000    6.768344    0.000001    -7.397442    -3.721854    -15.203762    0.000000    -0.632835    -0.000000    2.304569    -4.967345    -12.320731    0.000000    6.313568    -0.000001    6.943601    -8.732931    4.297338    0.000002    3.260113    -0.000001    
53.787350    83.870926    1.671494    0.071138    8.329068    3.749110    -0.199403    -23.434010    -0.501388    0.560352    15.311385    -0.591687    -1.416786    -6.029429    0.391505    0.812922    2.791538    0.503002    -2.313175    5.768373    -1.117655    -58.881943    40.911987    -14.155948    -7.498755    -18.898327    -22.117077    -9.883620    6.853602    7.506737    28.946249    36.104198    -41.347507    -12.053185    -0.062620    23.317392    -0.000000    0.000000    -0.000000    -7.129186    17.869682    -2.359349    -6.783594    -0.000002    -0.000004    -6.783590    0.000002    0.000004    -5.050077    8.965640    -1.489611    -4.988207    -0.000007    -0.000000    -4.988212    0.000003    0.000002    -4.141345    -8.976890    -1.442175    -4.090518    -0.000000    0.000004    -4.090528    -0.000002    -0.000001    -3.356777    -17.971062    -2.626512    -3.192831    0.000001    -0.000000    -3.192838    -0.000001    -0.000000    6.471391    5.851000    1.363814    66.698814    25.824696    4.143757    8.473190    -28.258617    17.466314    -5.177193    -6.041779    -10.395883    -38.470448    29.125034    43.584431    13.132266    -0.527686    -23.311840    -0.000000    0.000000    -0.000000    10.971722    17.691628    2.116013    10.446855    0.000001    0.000001    10.446851    -0.000000    -0.000001    11.763292    8.813986    0.916263    11.622420    -0.000000    -0.000001    11.622416    0.000001    -0.000001    12.357770    -8.794775    -1.737003    12.210205    0.000002    -0.000001    12.210213    0.000000    -0.000001    13.433289    -17.538069    -3.194459    12.798001    -0.000000    -0.000001    12.798011    -0.000001    0.000003    -0.668262    -8.208898    4.601245    -0.000000    6.985609    0.000001    -7.423687    -3.695481    -15.391004    -0.000002    -0.641610    -0.000001    2.343703    -5.002210    -12.205966    -0.000000    6.473689    -0.000000    6.671772    -8.959137    3.778480    0.000001    3.610553    0.000000    
53.777630    83.871384    1.667445    0.061519    8.306864    4.045851    -0.192875    -23.373522    -0.486159    0.537794    15.303625    -0.572396    -1.570748    -6.069946    0.308865    0.811148    2.788224    0.437515    -2.212633    5.756951    -1.151494    -58.518112    40.983189    -14.298997    -7.180037    -18.231066    -21.933178    -10.592759    7.123109    7.705637    28.975361    36.083115    -41.421524    -12.067788    -0.068913    23.317373    -0.000000    0.000000    -0.000000    -7.235637    17.865757    -2.486062    -6.884992    0.000005    -0.000003    -6.884979    -0.000004    0.000001    -5.143332    8.964352    -1.554763    -5.080359    0.000007    -0.000003    -5.080338    -0.000004    0.000005    -4.229926    -8.975891    -1.431385    -4.178017    -0.000000    0.000002    -4.178035    0.000002    -0.000002    -3.443879    -17.969542    -2.604160    -3.275716    0.000000    -0.000002    -3.275702    0.000001    0.000000    6.311962    5.811703    1.481984    66.513847    25.915974    4.198039    8.082666    -27.743343    16.965246    -4.331379    -5.910569    -10.637577    -38.487148    29.099092    43.637840    13.126520    -0.525205    -23.311886    -0.000000    0.000000    -0.000000    11.040820    17.687737    2.108763    10.512783    0.000001    0.000001    10.512775    -0.000001    0.000000    11.836061    8.811687    0.911988    11.694364    -0.000000    -0.000000    11.694371    0.000001    -0.000002    12.433563    -8.792257    -1.783627    12.285179    -0.000001    -0.000001    12.285160    0.000001    -0.000000    13.514841    -17.532452    -3.286311    12.875955    0.000000    -0.000000    12.875948    -0.000004    -0.000001    -0.673347    -8.333076    4.532965    0.000000    7.202983    -0.000000    -7.434537    -3.659788    -15.586457    -0.000000    -0.649401    0.000000    2.362314    -5.022640    -12.228495    0.000000    6.590755    -0.000000    6.471639    -9.131431    3.437231    0.000001    3.870302    -0.000001    
53.757793    83.871063    1.664133    0.046116    8.289037    4.360302    -0.183775    -23.323738    -0.464157    0.491522    15.282716    -0.540721    -1.703993    -6.061671    0.205091    0.840457    2.814133    0.345382    -2.137902    5.709296    -1.134821    -58.115875    40.931808    -14.400367    -6.901729    -17.659607    -21.752445    -11.234447    7.316472    7.840355    29.127563    35.974026    -41.540722    -12.021525    -0.048977    23.317429    -0.000000    0.000000    -0.000000    -7.218529    17.866394    -2.722068    -6.868678    -0.000000    0.000002    -6.868686    0.000002    -0.000002    -5.187447    8.963747    -1.663277    -5.123923    -0.000000    0.000002    -5.123920    0.000003    0.000002    -4.304334    -8.975032    -1.445536    -4.251527    -0.000002    0.000001    -4.251532    -0.000000    0.000003    -3.552613    -17.967594    -2.642790    -3.379157    0.000001    -0.000003    -3.379144    -0.000001    0.000002    6.159811    5.746169    1.546298    66.277214    25.945101    4.266387    7.679055    -27.193321    16.438349    -3.438516    -5.760545    -10.894273    -38.544716    29.037027    43.718319    13.103985    -0.515504    -23.312103    -0.000000    0.000000    -0.000000    11.126051    17.682903    2.120965    10.594144    -0.000000    -0.000001    10.594144    0.000001    0.000002    11.922767    8.808928    0.917756    11.780090    -0.000001    0.000000    11.780096    0.000001    0.000000    12.522453    -8.789288    -1.834577    12.373069    0.000001    0.000001    12.373056    -0.000000    0.000002    13.609059    -17.525930    -3.387006    12.966049    0.000000    0.000001    12.966037    -0.000007    -0.000006    -0.660859    -8.484306    4.482324    0.000000    7.464784    0.000000    -7.457891    -3.641110    -15.839783    -0.000000    -0.668084    0.000000    2.388277    -5.028256    -12.308534    0.000001    6.670769    -0.000002    6.309410    -9.273550    3.176431    0.000001    4.114911    -0.000001    
